D:\school\WTK\thesis\model\3dpredictsim\Results\debug_batch\Pog_s1_tmt_bCst_d00_k800_ig24_act_TTC_GRF.mot
nRows=30
nColumns=19

name D:\school\WTK\thesis\model\3dpredictsim\Results\debug_batch\Pog_s1_tmt_bCst_d00_k800_ig24_act_TTC_GRF.mot
datacolumns 19
datarows 30
range 0.6649501186 1.0506211874
endheader
time 	ground_force_vx	ground_force_vy	ground_force_vz	ground_force_px	ground_force_py	ground_force_pz	1_ground_force_vx	1_ground_force_vy	1_ground_force_vz	1_ground_force_px	1_ground_force_py	1_ground_force_pz	ground_torque_x	ground_torque_y	ground_torque_z	1_ground_torque_x	1_ground_torque_y	1_ground_torque_z
        0.6649501186	       79.8517942041	      326.5263625351	        6.1403803056	        0.4416854180	        0.0000000000	        0.0293976631	     -107.7429662627	      110.4222840586	      -37.5109469386	        1.0505177761	        0.0000000000	       -0.0478751960	        0.0000000000	        0.0000000000	        0.0000000000	        0.0000000000	        0.0000000000	        0.0000000000	
        0.6782491210	       41.3514299867	      212.1190286934	       12.9686269322	        0.4568339301	        0.0000000000	        0.0229706682	      -69.9758900276	      345.7348648497	       -7.9644102344	        1.0556863971	        0.0000000000	       -0.0460345872	        0.0000000000	        0.0000000000	        0.0000000000	        0.0000000000	        0.0000000000	        0.0000000000	
        0.6915481234	       27.0711023431	      164.3411174258	       11.6268840051	        0.4603022440	        0.0000000000	        0.0211846274	      -87.3954394522	      587.6389617668	        9.7044412856	        1.0582737616	        0.0000000000	       -0.0458639358	        0.0000000000	        0.0000000000	        0.0000000000	        0.0000000000	        0.0000000000	        0.0000000000	
        0.7048471257	       19.5015353169	      110.6735562328	       12.7529319703	        0.4607044521	        0.0000000000	        0.0214590438	     -144.0088722606	      797.0176275335	       16.4033696586	        1.0663439873	        0.0000000000	       -0.0475699748	        0.0000000000	        0.0000000000	        0.0000000000	        0.0000000000	        0.0000000000	        0.0000000000	
        0.7181461281	        1.9848687595	       44.1885130314	        9.9528792335	        0.4602034201	        0.0000000000	        0.0219957154	     -181.1219973896	      919.6021443649	       20.7658646896	        1.0752379111	        0.0000000000	       -0.0495455769	        0.0000000000	        0.0000000000	        0.0000000000	        0.0000000000	        0.0000000000	        0.0000000000	
        0.7314451305	        0.3959701982	       -0.3842678923	       -0.0022182068	        0.0000000000	        0.0000000000	        0.0000000000	     -179.8464053741	      922.0642321793	       19.5210694682	        1.0809500636	        0.0000000000	       -0.0506418178	        0.0000000000	        0.0000000000	        0.0000000000	        0.0000000000	        0.0000000000	        0.0000000000	
        0.7447441329	        0.3605979676	       -0.2765996857	        0.0282183171	        0.0000000000	        0.0000000000	        0.0000000000	     -157.0672732442	      865.1657887088	       19.1162584153	        1.0850204653	        0.0000000000	       -0.0512457376	        0.0000000000	        0.0000000000	        0.0000000000	        0.0000000000	        0.0000000000	        0.0000000000	
        0.7580431352	       -4.3357649733	        2.8704619522	       -0.4006358573	        0.0000000000	        0.0000000000	        0.0000000000	     -136.7109525255	      798.1599081028	       17.5399989036	        1.0885225643	        0.0000000000	       -0.0515827368	        0.0000000000	        0.0000000000	        0.0000000000	        0.0000000000	        0.0000000000	        0.0000000000	
        0.7713421376	       -2.8741160721	        1.7034458296	       -0.2732837338	        0.0000000000	        0.0000000000	        0.0000000000	     -120.5067289037	      751.8891077812	       16.1562524945	        1.0921166221	        0.0000000000	       -0.0516629821	        0.0000000000	        0.0000000000	        0.0000000000	        0.0000000000	        0.0000000000	        0.0000000000	
        0.7846411400	       -2.2849156049	        1.2488248405	       -0.2149105749	        0.0000000000	        0.0000000000	        0.0000000000	     -105.4957423409	      716.7441414512	       16.3636007685	        1.0958009401	        0.0000000000	       -0.0516027871	        0.0000000000	        0.0000000000	        0.0000000000	        0.0000000000	        0.0000000000	        0.0000000000	
        0.7979401423	       -1.6591641081	        0.8521651268	       -0.1529992005	        0.0000000000	        0.0000000000	        0.0000000000	      -92.9150418754	      689.8167920778	       16.7694429659	        1.1000656543	        0.0000000000	       -0.0514070799	        0.0000000000	        0.0000000000	        0.0000000000	        0.0000000000	        0.0000000000	        0.0000000000	
        0.8112391447	       -1.2002967697	        0.5917603107	       -0.1038653933	        0.0000000000	        0.0000000000	        0.0000000000	      -81.6153267638	      666.7781732497	       17.8330205837	        1.1046606637	        0.0000000000	       -0.0511104637	        0.0000000000	        0.0000000000	        0.0000000000	        0.0000000000	        0.0000000000	        0.0000000000	
        0.8245381471	       -0.9388493576	        0.4470794539	       -0.0778409180	        0.0000000000	        0.0000000000	        0.0000000000	      -70.9958703033	      644.9971731156	       18.6499255373	        1.1091077840	        0.0000000000	       -0.0508787152	        0.0000000000	        0.0000000000	        0.0000000000	        0.0000000000	        0.0000000000	        0.0000000000	
        0.8378371495	       -0.8137652811	        0.3767448994	       -0.0652901903	        0.0000000000	        0.0000000000	        0.0000000000	      -61.3138111186	      625.8191435155	       19.1686932823	        1.1133265557	        0.0000000000	       -0.0507428858	        0.0000000000	        0.0000000000	        0.0000000000	        0.0000000000	        0.0000000000	        0.0000000000	
        0.8511361518	       -0.7695514843	        0.3480675174	       -0.0598743482	        0.0000000000	        0.0000000000	        0.0000000000	      -52.5008393299	      609.3067103208	       19.5273517797	        1.1174024300	        0.0000000000	       -0.0506820922	        0.0000000000	        0.0000000000	        0.0000000000	        0.0000000000	        0.0000000000	        0.0000000000	
        0.8644351542	       -0.7745719782	        0.3434073156	       -0.0586669644	        0.0000000000	        0.0000000000	        0.0000000000	      -46.2768437730	      597.2147528187	       19.7334505468	        1.1213978305	        0.0000000000	       -0.0506616180	        0.0000000000	        0.0000000000	        0.0000000000	        0.0000000000	        0.0000000000	        0.0000000000	
        0.8777341566	       -0.8174198515	        0.3558568677	       -0.0606159894	        0.0000000000	        0.0000000000	        0.0000000000	      -40.1708655208	      589.0598320772	       19.5724706928	        1.1253412638	        0.0000000000	       -0.0506678923	        0.0000000000	        0.0000000000	        0.0000000000	        0.0000000000	        0.0000000000	        0.0000000000	
        0.8910331589	       -0.9077335261	        0.3880920146	       -0.0655056280	        0.0000000000	        0.0000000000	        0.0000000000	      -34.5067246872	      582.7485909580	       19.0099652103	        1.1292766936	        0.0000000000	       -0.0506821544	        0.0000000000	        0.0000000000	        0.0000000000	        0.0000000000	        0.0000000000	        0.0000000000	
        0.9043321613	       -1.0434595679	        0.4385433714	       -0.0721693912	        0.0000000000	        0.0000000000	        0.0000000000	      -29.3223660690	      578.1637816585	       18.2933767447	        1.1332269440	        0.0000000000	       -0.0506851380	        0.0000000000	        0.0000000000	        0.0000000000	        0.0000000000	        0.0000000000	        0.0000000000	
        0.9176311637	       -1.2086542222	        0.5000738829	       -0.0788066554	        0.0000000000	        0.0000000000	        0.0000000000	      -24.1517067647	      574.8343857805	       17.8581456342	        1.1373485791	        0.0000000000	       -0.0506447651	        0.0000000000	        0.0000000000	        0.0000000000	        0.0000000000	        0.0000000000	        0.0000000000	
        0.9309301661	       -1.3751255862	        0.5611234965	       -0.0836465970	        0.0000000000	        0.0000000000	        0.0000000000	      -19.0456218490	      572.2797562121	       18.1211019426	        1.1418266623	        0.0000000000	       -0.0505234560	        0.0000000000	        0.0000000000	        0.0000000000	        0.0000000000	        0.0000000000	        0.0000000000	
        0.9442291684	       -1.5099436228	        0.6088661121	       -0.0857285773	        0.0000000000	        0.0000000000	        0.0000000000	      -14.5463754432	      569.6957074785	       18.6262621576	        1.1466003576	        0.0000000000	       -0.0503279430	        0.0000000000	        0.0000000000	        0.0000000000	        0.0000000000	        0.0000000000	        0.0000000000	
        0.9575281708	       -1.5783791448	        0.6302130236	       -0.0836968703	        0.0000000000	        0.0000000000	        0.0000000000	      -10.1116876683	      566.9228633354	       19.0385664996	        1.1515832820	        0.0000000000	       -0.0500777145	        0.0000000000	        0.0000000000	        0.0000000000	        0.0000000000	        0.0000000000	        0.0000000000	
        0.9708271732	       -1.5680581374	        0.6209839979	       -0.0771270315	        0.0000000000	        0.0000000000	        0.0000000000	       -5.6447574270	      563.8797505153	       18.9250516718	        1.1567805226	        0.0000000000	       -0.0497788832	        0.0000000000	        0.0000000000	        0.0000000000	        0.0000000000	        0.0000000000	        0.0000000000	
        0.9841261756	       -1.5067370373	        0.5921673638	       -0.0667263948	        0.0000000000	        0.0000000000	        0.0000000000	       -1.0319204281	      559.5925655066	       18.0766941182	        1.1620579070	        0.0000000000	       -0.0494507228	        0.0000000000	        0.0000000000	        0.0000000000	        0.0000000000	        0.0000000000	        0.0000000000	
        0.9974251779	       -1.4357799673	        0.5598704359	       -0.0539784181	        0.0000000000	        0.0000000000	        0.0000000000	        3.4454198825	      554.0974819695	       16.4780542490	        1.1673538034	        0.0000000000	       -0.0490976303	        0.0000000000	        0.0000000000	        0.0000000000	        0.0000000000	        0.0000000000	        0.0000000000	
        1.0107241803	       -1.3374316933	        0.5177399947	       -0.0387463445	        0.0000000000	        0.0000000000	        0.0000000000	        7.4496513757	      549.9357610760	       14.9259501359	        1.1727849510	        0.0000000000	       -0.0486888199	        0.0000000000	        0.0000000000	        0.0000000000	        0.0000000000	        0.0000000000	        0.0000000000	
        1.0240231827	       -1.1696425748	        0.4499818955	       -0.0220356949	        0.0000000000	        0.0000000000	        0.0000000000	       11.2173154481	      548.5078036897	       13.8169681832	        1.1783346753	        0.0000000000	       -0.0482196160	        0.0000000000	        0.0000000000	        0.0000000000	        0.0000000000	        0.0000000000	        0.0000000000	
        1.0373221850	       -0.8996716609	        0.3443340736	       -0.0074053762	        0.0000000000	        0.0000000000	        0.0000000000	       14.4818601626	      550.8455662064	       13.2842157776	        1.1839398075	        0.0000000000	       -0.0476947005	        0.0000000000	        0.0000000000	        0.0000000000	        0.0000000000	        0.0000000000	        0.0000000000	
        1.0506211874	       -0.5514227186	        0.2102069544	        0.0007528882	        0.0000000000	        0.0000000000	        0.0000000000	       17.0176057638	      557.1368951711	       13.6885546675	        1.1894248446	        0.0000000000	       -0.0471354250	        0.0000000000	        0.0000000000	        0.0000000000	        0.0000000000	        0.0000000000	        0.0000000000	
